<?xml version="1.0" standalone="no"?><svg xmlns="http://www.w3.org/2000/svg" viewBox="0 0 1440 320"><path fill="#0099ff" fill-opacity="1" d="M0,288L30,272C60,256,120,224,180,192C240,160,300,128,360,106.7C420,85,480,75,540,64C600,53,660,43,720,80C780,117,840,203,900,218.7C960,235,1020,181,1080,165.3C1140,149,1200,171,1260,197.3C1320,224,1380,256,1410,272L1440,288L1440,0L1410,0C1380,0,1320,0,1260,0C1200,0,1140,0,1080,0C1020,0,960,0,900,0C840,0,780,0,720,0C660,0,600,0,540,0C480,0,420,0,360,0C300,0,240,0,180,0C120,0,60,0,30,0L0,0Z"></path></svg>